<svg xmlns="http://www.w3.org/2000/svg" viewBox="0 0 940 390" font-family="Segoe UI, Helvetica, Arial, sans-serif">
  <rect width="940" height="390" fill="#0f1117"/><text x="470" y="34" text-anchor="middle" font-size="17" font-weight="700" fill="#e8ecf3">WHAT GOES ON THE TABLE</text>
  <g stroke="#3a3f4b" fill="#161a22"><rect x="28" y="58" width="274" height="130" rx="10"/><rect x="333" y="58" width="274" height="130" rx="10"/><rect x="638" y="58" width="274" height="130" rx="10"/><rect x="28" y="214" width="274" height="130" rx="10"/><rect x="333" y="214" width="274" height="130" rx="10"/><rect x="638" y="214" width="274" height="130" rx="10"/></g>
  <g text-anchor="middle"><text x="165" y="87" font-size="14" font-weight="700" fill="#f0c674">SHARED SCREEN</text><rect x="91" y="101" width="148" height="62" rx="4" fill="#101820" stroke="#ffb000"/><path d="M130 171h70m-35-8v8" stroke="#8f96a3"/><text x="165" y="124" font-size="10" fill="#ffb000">MAGGIE · WORLD · LOG</text><text x="165" y="145" font-size="11" fill="#c9d1da">one view for the table</text>
  <text x="470" y="87" font-size="14" font-weight="700" fill="#d9a9ff">PRIVATE PHONES</text><rect x="431" y="99" width="78" height="70" rx="9" fill="#101820" stroke="#c77dff"/><rect x="441" y="110" width="58" height="40" fill="#25203a"/><circle cx="470" cy="159" r="3" fill="#c77dff"/><text x="470" y="183" font-size="11" fill="#c9d1da">one identical device each</text>
  <text x="775" y="87" font-size="14" font-weight="700" fill="#9fd0ff">STAR MAP</text><path d="M704 106l30-17 30 17v34l-30 17-30-17zm60 0l30-17 30 17v34l-30 17-30-17" fill="#1a2233" stroke="#4a9eff"/><circle cx="734" cy="123" r="5" fill="#4a9eff"/><path d="M734 123l60 0" stroke="#9fd0ff" stroke-dasharray="4 4"/><text x="775" y="183" font-size="11" fill="#c9d1da">players count real hexes</text>
  <text x="165" y="243" font-size="14" font-weight="700" fill="#7ee2a8">PHYSICAL DICE</text><g fill="#e8ecf3" stroke="#4caf7d"><rect x="113" y="264" width="46" height="46" rx="7"/><rect x="171" y="264" width="46" height="46" rx="7"/></g><g fill="#16301f"><circle cx="126" cy="277" r="3"/><circle cx="146" cy="297" r="3"/><circle cx="184" cy="277" r="3"/><circle cx="204" cy="277" r="3"/><circle cx="184" cy="297" r="3"/><circle cx="204" cy="297" r="3"/></g><text x="165" y="329" font-size="11" fill="#c9d1da">you roll your own fate</text>
  <text x="470" y="243" font-size="14" font-weight="700" fill="#ff9a9a">SEALED ENVELOPES</text><path d="M405 264h130v58H405z" fill="#332a17" stroke="#e05c5c"/><path d="M405 264l65 40 65-40" fill="none" stroke="#e05c5c"/><circle cx="470" cy="299" r="10" fill="#c2564a"/><text x="470" y="339" font-size="11" fill="#c9d1da">truth at a price</text>
  <text x="775" y="243" font-size="14" font-weight="700" fill="#f0c674">OPTIONAL PRINT PACK</text><path d="M723 258h93l20 20v44H723z" fill="#f0e4c3" stroke="#e0a94c"/><path d="M816 258v20h20" fill="none" stroke="#e0a94c"/><path d="M739 287h72m-72 12h72m-72 12h50" stroke="#8a7440"/><text x="775" y="339" font-size="11" fill="#c9d1da">evidence, not required machinery</text></g>
</svg>
