<svg xmlns="http://www.w3.org/2000/svg" viewBox="0 0 940 310" font-family="Segoe UI, Helvetica, Arial, sans-serif">
  <rect width="940" height="310" fill="#0f1117"/><text x="470" y="31" text-anchor="middle" font-size="17" font-weight="700" fill="#e8ecf3">WHAT GOES WRONG</text><g transform="translate(36 58)" text-anchor="middle"><g fill="#161a22" stroke="#3a3f4b"><rect width="118" height="190" rx="10"/><rect x="128" width="118" height="190" rx="10"/><rect x="256" width="118" height="190" rx="10"/><rect x="384" width="118" height="190" rx="10"/><rect x="512" width="118" height="190" rx="10"/><rect x="640" width="118" height="190" rx="10"/><rect x="768" width="118" height="190" rx="10"/></g>
  <g fill="none" stroke-width="3"><path d="M32 68h54m-54 15h36" stroke="#e05c5c"/><path d="M161 61l42 0 10 40h-62zM171 61v40" stroke="#e0a94c"/><path d="M291 83c15-26 34-26 49 0-15 26-34 26-49 0zM312 60v46" stroke="#c77dff"/><path d="M420 104l18-44 10 22 15-35 9 57z" stroke="#4a9eff"/><circle cx="571" cy="82" r="29" stroke="#8f96a3"/><path d="M550 61l42 42m0-42l-42 42" stroke="#8f96a3"/><path d="M669 103V58h60v45m-60-23h60" stroke="#4caf7d"/><path d="M803 99l16-37 16 37m-23-17h16M848 99l-13-22" stroke="#ff9a9a"/></g>
  <g font-size="12" font-weight="700" fill="#e8ecf3"><text x="59" y="137">SHORTFALL</text><text x="187" y="137">SUBSTITUTION</text><text x="315" y="137">LEAK</text><text x="443" y="137">MALFUNCTION</text><text x="571" y="137">GHOST</text><text x="699" y="137">CLAIM</text><text x="827" y="137">BAD TICKET</text></g><g font-size="10.5" fill="#8f96a3"><text x="59" y="160">missing</text><text x="187" y="160">not as filed</text><text x="315" y="160">known too soon</text><text x="443" y="160">failure without cause</text><text x="571" y="160">record too clean</text><text x="699" y="160">someone got there</text><text x="827" y="160">wrong from start</text></g></g><text x="470" y="278" text-anchor="middle" font-size="12" fill="#8f96a3">Every family has honest causes and dishonest ones. The evidence tells you what happened, not whom to trust.</text>
</svg>
