<svg xmlns="http://www.w3.org/2000/svg" viewBox="0 0 940 330" font-family="Segoe UI, Helvetica, Arial, sans-serif">
  <rect width="940" height="330" fill="#0f1117"/><text x="470" y="32" text-anchor="middle" font-size="17" font-weight="700" fill="#e8ecf3">THE OBLIGATION IS ALWAYS MOVING</text>
  <line x1="74" y1="145" x2="866" y2="145" stroke="#8f96a3" stroke-width="4"/><g fill="#0f1117" stroke="#e0a94c" stroke-width="3"><circle cx="90" cy="145" r="15"/><circle cx="290" cy="145" r="15"/><circle cx="490" cy="145" r="15"/><circle cx="690" cy="145" r="15"/></g><circle cx="850" cy="145" r="22" fill="#331a1a" stroke="#e05c5c" stroke-width="3"/>
  <g text-anchor="middle"><text x="90" y="92" font-size="28" font-weight="700" fill="#f0c674">T−28</text><text x="90" y="184" font-size="12" fill="#c9d1da">departure</text><text x="290" y="92" font-size="28" font-weight="700" fill="#f0c674">T−21</text><text x="290" y="184" font-size="12" fill="#c9d1da">one transit</text><text x="490" y="92" font-size="28" font-weight="700" fill="#f0c674">T−14</text><text x="490" y="184" font-size="12" fill="#c9d1da">evidence cost</text><text x="690" y="92" font-size="28" font-weight="700" fill="#f0c674">T−7</text><text x="690" y="184" font-size="12" fill="#c9d1da">last clean week</text><text x="850" y="92" font-size="28" font-weight="700" fill="#ff9a9a">DUE</text><text x="850" y="184" font-size="12" fill="#ff9a9a">pay or default</text></g>
  <g fill="#161a22" stroke="#3a3f4b"><rect x="85" y="226" width="230" height="66" rx="10"/><rect x="355" y="226" width="230" height="66" rx="10"/><rect x="625" y="226" width="230" height="66" rx="10"/></g><g text-anchor="middle"><text x="200" y="252" font-size="13" font-weight="700" fill="#9fd0ff">TRANSIT</text><text x="200" y="274" font-size="12" fill="#c9d1da">seven days</text><text x="470" y="252" font-size="13" font-weight="700" fill="#d9a9ff">EVIDENCE ACTION</text><text x="470" y="274" font-size="12" fill="#c9d1da">one day</text><text x="740" y="252" font-size="13" font-weight="700" fill="#7ee2a8">FAILURE</text><text x="740" y="274" font-size="12" fill="#c9d1da">time, never a dead end</text></g>
</svg>
