<svg xmlns="http://www.w3.org/2000/svg" viewBox="0 0 940 360" font-family="Segoe UI, Helvetica, Arial, sans-serif">
  <defs><marker id="pa" viewBox="0 0 10 10" refX="9" refY="5" markerWidth="7" markerHeight="7" orient="auto"><path d="M0 0l10 5-10 5z" fill="#9aa4b2"/></marker></defs><rect width="940" height="360" fill="#0f1117"/><text x="470" y="32" text-anchor="middle" font-size="17" font-weight="700" fill="#e8ecf3">THE ENGINE IS A CHASSIS</text>
  <rect x="28" y="60" width="280" height="260" rx="12" fill="#1a2233" stroke="#4a9eff"/><text x="168" y="91" text-anchor="middle" font-size="15" font-weight="700" fill="#9fd0ff">ACTIVE PLUGIN SUPPLIES</text><g font-size="13" fill="#c9d1da"><text x="65" y="129">◆ dice convention</text><text x="65" y="161">◆ skills and characteristics</text><text x="65" y="193">◆ ships and equipment</text><text x="65" y="225">◆ currency</text><text x="65" y="257">◆ travel-cost model</text><text x="65" y="289">◆ map with distances</text></g>
  <line x1="308" y1="190" x2="368" y2="190" stroke="#9aa4b2" stroke-width="2" marker-end="url(#pa)"/><rect x="372" y="102" width="220" height="176" rx="12" fill="#332a17" stroke="#e0a94c" stroke-width="2"/><text x="482" y="144" text-anchor="middle" font-size="17" font-weight="700" fill="#f0c674">TELEMETRY ENGINE</text><text x="482" y="177" text-anchor="middle" font-size="13" fill="#c9d1da">turns · clocks · incidents</text><text x="482" y="202" text-anchor="middle" font-size="13" fill="#c9d1da">evidence · suspicion</text><text x="482" y="227" text-anchor="middle" font-size="13" fill="#c9d1da">private objectives · log</text><text x="482" y="254" text-anchor="middle" font-size="11" fill="#8f96a3">the stars are aftermarket</text>
  <line x1="592" y1="190" x2="652" y2="190" stroke="#9aa4b2" stroke-width="2" marker-end="url(#pa)"/><rect x="656" y="60" width="256" height="260" rx="12" fill="#16301f" stroke="#4caf7d"/><text x="784" y="91" text-anchor="middle" font-size="15" font-weight="700" fill="#7ee2a8">THE TABLE RECEIVES</text><g text-anchor="middle"><text x="784" y="137" font-size="13" fill="#c9d1da">MAGGIE on the shared screen</text><text x="784" y="176" font-size="13" fill="#c9d1da">private channels on phones</text><text x="784" y="215" font-size="13" fill="#c9d1da">facts on an append-only log</text><text x="784" y="254" font-size="13" fill="#c9d1da">a world that remembers</text><text x="784" y="292" font-size="12" font-weight="700" fill="#7ee2a8">same engine · different universe</text></g>
</svg>
