<svg xmlns="http://www.w3.org/2000/svg" viewBox="0 0 940 620" font-family="'Courier New', Courier, monospace">
  <rect width="940" height="620" fill="#0f1117"/><rect x="16" y="16" width="908" height="588" rx="10" fill="#121418" stroke="#6e5a2c" stroke-width="2"/><text x="470" y="52" text-anchor="middle" font-size="20" font-weight="700" letter-spacing="3" fill="#ffb000">SHIPBOARD PROCEDURE CARD</text><text x="470" y="76" text-anchor="middle" font-size="11" letter-spacing="2" fill="#8a7440">KEEP ON TABLE · KEEP THE RECORD · KEEP MOVING</text>
  <g transform="translate(42 104)"><rect width="856" height="128" rx="8" fill="#161a22" stroke="#3a3f4b"/><text x="428" y="27" text-anchor="middle" font-size="14" font-weight="700" fill="#e8ecf3">ONE WEEK · FOUR BEATS</text><g text-anchor="middle"><circle cx="110" cy="76" r="35" fill="#16301f" stroke="#4caf7d"/><circle cx="322" cy="76" r="35" fill="#25203a" stroke="#c77dff"/><circle cx="534" cy="76" r="35" fill="#1a2233" stroke="#4a9eff"/><circle cx="746" cy="76" r="35" fill="#332a17" stroke="#e0a94c"/><text x="110" y="72" font-size="12" font-weight="700" fill="#7ee2a8">DOCKSIDE</text><text x="110" y="90" font-size="9" fill="#c9d1da">deals · prep</text><text x="322" y="72" font-size="12" font-weight="700" fill="#d9a9ff">COMMS</text><text x="322" y="90" font-size="9" fill="#c9d1da">30s · silence</text><text x="534" y="72" font-size="12" font-weight="700" fill="#9fd0ff">TRANSIT</text><text x="534" y="90" font-size="9" fill="#c9d1da">plot · burn</text><text x="746" y="72" font-size="12" font-weight="700" fill="#f0c674">ARRIVAL</text><text x="746" y="90" font-size="9" fill="#c9d1da">settle · suspect</text></g><path d="M145 76h140m72 0h140m72 0h140" stroke="#8f96a3" stroke-width="2"/></g>
  <g transform="translate(42 250)"><rect width="416" height="212" rx="8" fill="#161a22" stroke="#3a3f4b"/><text x="208" y="31" text-anchor="middle" font-size="14" font-weight="700" fill="#e8ecf3">WHEN MAGGIE ASKS</text><text x="25" y="69" font-size="13" fill="#9fd0ff">CHECK</text><text x="130" y="69" font-size="13" fill="#c9d1da">2d6 + skill vs. difficulty</text><text x="25" y="101" font-size="13" fill="#7ee2a8">EFFECT</text><text x="130" y="101" font-size="13" fill="#c9d1da">total minus difficulty</text><text x="25" y="133" font-size="13" fill="#f0c674">EVIDENCE</text><text x="130" y="133" font-size="13" fill="#c9d1da">one action costs one day</text><text x="25" y="165" font-size="13" fill="#ff9a9a">FAILURE</text><text x="130" y="165" font-size="13" fill="#c9d1da">story moves · clock moves</text><text x="25" y="197" font-size="13" fill="#d9a9ff">BOON/BANE</text><text x="130" y="197" font-size="13" fill="#c9d1da">3d6 · keep best/worst two</text></g>
  <g transform="translate(482 250)"><rect width="416" height="212" rx="8" fill="#161a22" stroke="#3a3f4b"/><text x="208" y="31" text-anchor="middle" font-size="14" font-weight="700" fill="#e8ecf3">WHEN THE RECORD DISAGREES</text><text x="25" y="69" font-size="13" fill="#ff9a9a">ACCUSE</text><text x="130" y="69" font-size="13" fill="#c9d1da">name one crewmate publicly</text><text x="25" y="101" font-size="13" fill="#9fd0ff">SEARCH</text><text x="130" y="101" font-size="13" fill="#c9d1da">find what is physically there</text><text x="25" y="133" font-size="13" fill="#8f96a3">LET IT LIE</text><text x="130" y="133" font-size="13" fill="#c9d1da">the loss and silence are logged</text><text x="25" y="165" font-size="13" fill="#f0c674">ENVELOPE</text><text x="130" y="165" font-size="13" fill="#c9d1da">vote opens · burned · forfeit</text><text x="25" y="197" font-size="13" fill="#d9a9ff">TIMER</text><text x="130" y="197" font-size="13" fill="#c9d1da">five minutes · captain breaks tie</text></g>
  <g transform="translate(42 480)"><rect width="856" height="90" rx="8" fill="#332a17" stroke="#e0a94c"/><text x="25" y="33" font-size="13" font-weight="700" fill="#f0c674">EVERY TRANSIT</text><text x="191" y="33" font-size="13" fill="#e8ecf3">find the hex · count parsecs · name destination · check fuel</text><text x="25" y="62" font-size="13" font-weight="700" fill="#f0c674">EVERY FEED</text><text x="191" y="62" font-size="13" fill="#e8ecf3">read the staleness tag before you trust the number</text><text x="693" y="48" text-anchor="middle" font-size="16" font-weight="700" fill="#ffb000">MIND THE OBLIGATION</text></g><text x="470" y="594" text-anchor="middle" font-size="11" fill="#8a7440">THE LOG IS APPEND-ONLY. THE BLACK BOX IS COMPLETE. YOUR PLAN IS TEMPORARY.</text>
</svg>
